<svg xmlns="http://www.w3.org/2000/svg" xmlns:xlink="http://www.w3.org/1999/xlink" version="1.1" id="Layer_1" x="0px" y="0px" viewBox="0 0 200 65" style="enable-background:new 0 0 200 65;" xml:space="preserve"><style type="text/css">
	.st0{fill:#264A9B;}
</style><g><g><path class="st0" d="M29,25.1l10,0.7V8l-10,3.3V25.1z M0,60.3L15,65V0L0,4.7V60.3z M29,52.7L39,56V35.3l-10,0.6V52.7z M119,30.1    h2.5l3.8,7.2h5.9l-4.2-7.4c-0.5-0.9-0.8-1.3-0.8-1.3v-0.1c2.1-1.1,3.2-3.5,3.2-5.8c0-3.1-1.5-5.3-4-6.2c-0.9-0.4-2-0.5-4.2-0.5    h-7.5v21.3h5.3V30.1z M119,20.4h1.8c2.7,0,3.3,1,3.3,2.6c0,1.7-1.1,2.6-2.7,2.6H119V20.4z M175.7,32.8H167v-4h6.6v-4.5H167v-3.9    h8.2V16h-13.5v21.3h14V32.8z M94.2,32.8h6.7l1.3,4.5h5.4L100.4,16h-5.6l-7.3,21.3h5.4L94.2,32.8z M96.7,24.5    c0.4-1.3,0.9-3.7,0.9-3.7h0.1c0,0,0.5,2.3,0.9,3.7l1.2,4.1h-4.3L96.7,24.5z M192.9,37.2v-8.7L200,16h-6l-2.4,5.1    c-0.7,1.5-1.3,3.1-1.3,3.1h-0.1c0,0-0.6-1.6-1.3-3.1l-2.4-5.1h-6l7.1,12.5v8.7H192.9z M150.2,16l-3.9,12.1    c-0.4,1.3-0.8,3.4-0.8,3.4h-0.1c0,0-0.4-2.1-0.8-3.4L140.8,16H135l7.6,21.3h5.5l7.6-21.3H150.2z M68.3,28.9h7.9v8.3h5.3V16h-5.3    v8.5h-7.9V16H63v21.3h5.3V28.9z M74.4,47.7h2.6v-1.4h-2.6V45h4.8v-1.4H73v6.9h6.4v-1.4h-5V47.7z M70.1,45.7c0-0.7-0.3-1.3-0.9-1.7    c-0.4-0.3-0.8-0.4-1.3-0.4H63v6.9h1.4v-2.8h2.2l1.8,2.8h1.8l-1.8-2.8C69.5,47.4,70.1,46.8,70.1,45.7z M67.8,46.4h-3.4V45h3.1    c0.5,0,1,0,1,0.6C68.6,46.1,68.3,46.4,67.8,46.4z M84.2,43.6l-3.4,6.9h1.6l0.7-1.5h4.1l0.7,1.5h1.6l-3.5-6.9H84.2z M83.8,47.7    l1.4-2.7l1.4,2.7H83.8z M155.3,47.9c0,0.7-0.1,1-0.5,1.2c-0.4,0.2-0.9,0.3-1.4,0.3c-1.2,0-2.1-0.1-2.1-1.5v-4.2h-1.4v4.2    c0,2,1.4,2.9,3.3,2.9c1,0,2.3-0.3,3-1.1c0.5-0.6,0.5-1.1,0.5-1.8v-4.2h-1.4V47.9z M175,50.6h1.4v-6.9H175V50.6z M167.7,49    c-0.4,0-1,0.4-1,0.8c0,0.5,0.3,0.9,0.9,0.9c0.2,0,0.3,0.1,0.3,0.3c0,0.5-0.4,0.9-0.8,1.2c-0.1,0.1-0.2,0.2-0.2,0.4    c0,0.2,0.1,0.3,0.3,0.3c0.1,0,0.3-0.1,0.4-0.2c0.5-0.4,1.3-1.1,1.3-2.3C168.9,49.8,168.5,49,167.7,49z M185,48.3l-3.9-4.7h-1.4    v6.9h1.4v-4.7l3.9,4.7h1.4v-6.9H185V48.3z M192.9,49.4c-1.3,0-2.8-0.8-2.8-2.3c0-1.4,1.4-2.3,2.8-2.3c1.1,0,2,0.4,2.8,1.1l0.8-1.2    c-1.2-0.9-2.1-1.3-3.6-1.3c-2.2,0-4.2,1.5-4.2,3.8c0,2.4,2.1,3.6,4.3,3.6c1.6,0,2.3-0.3,3.6-1.1l-0.6-1.3    C194.9,49.1,194.2,49.4,192.9,49.4z M166.1,44.1c-0.5-0.4-0.9-0.5-1.5-0.5h-4.5v6.9h1.4v-2.5h2.8c0.8,0,1.4,0,1.9-0.6    c0.4-0.4,0.6-1,0.6-1.6C166.9,45.2,166.6,44.6,166.1,44.1z M164.4,46.7h-2.8V45h2.8c0.6,0,1.1,0.1,1.1,0.8    C165.5,46.6,165,46.7,164.4,46.7z M199.1,48.9c-0.5,0-1,0.4-1,1c0,0.5,0.4,1,1,1c0.5,0,1-0.4,1-1C200,49.3,199.6,48.9,199.1,48.9z     M109.6,46.4l-1.9-2.7H106l3,4.1v2.8h1.4v-2.8l2.9-4.1h-1.7L109.6,46.4z M93,43.6h-1.5v6.9H97v-1.4h-4V43.6z M98,45h2.6v5.5h1.4    V45h2.7v-1.4H98V45z M136.8,45.7c0-0.7-0.3-1.3-0.9-1.7c-0.4-0.3-0.8-0.4-1.3-0.4h-4.8v6.9h1.4v-2.8h2.2l1.8,2.8h1.8l-1.8-2.8    C136.2,47.4,136.8,46.8,136.8,45.7z M134.6,46.4h-3.4V45h3.1c0.5,0,1,0,1,0.6C135.4,46.1,135,46.4,134.6,46.4z M123.4,47.9h1.7    v0.8c-0.8,0.4-1.3,0.6-2.2,0.6c-1.4,0-2.7-0.8-2.7-2.3c0-1.5,1.4-2.3,2.8-2.3c1,0,1.8,0.3,2.6,0.9l0.8-1.4c-1-0.6-2.2-0.9-3.3-0.9    c-2.2,0-4.2,1.4-4.2,3.7c0,2.4,2,3.7,4.3,3.7c1.4,0,2.3-0.4,3.4-1.3v-2.9h-3.2V47.9z M143.3,43.4c-2.2,0-4.3,1.3-4.3,3.7    c0,2.3,2.1,3.7,4.3,3.7c2.2,0,4.4-1.4,4.4-3.8C147.6,44.6,145.5,43.4,143.3,43.4z M143.3,49.4c-1.4,0-2.9-0.7-2.9-2.3    c0-1.6,1.5-2.3,2.9-2.3c1.4,0,2.9,0.7,2.9,2.2C146.2,48.6,144.7,49.4,143.3,49.4z"/></g></g></svg>